<svg width="90" height="36" viewBox="0 0 90 36" fill="none" xmlns="http://www.w3.org/2000/svg">
<g clip-path="url(#clip0_1_656)">
<path d="M2.112 9.632H4.128V16.712H12.408V9.632H14.424V26H12.408V18.512H4.128V26H2.112V9.632ZM26.7654 25.712C26.3974 25.824 26.0134 25.92 25.6134 26C25.2294 26.08 24.7974 26.152 24.3174 26.216C23.8534 26.28 23.3654 26.312 22.8534 26.312C22.0534 26.312 21.3094 26.2 20.6214 25.976C19.9334 25.752 19.3334 25.392 18.8214 24.896C18.3094 24.4 17.9014 23.76 17.5974 22.976C17.3094 22.176 17.1654 21.2 17.1654 20.048C17.1654 19.008 17.3094 18.096 17.5974 17.312C17.8854 16.512 18.2774 15.848 18.7734 15.32C19.2854 14.776 19.8774 14.368 20.5494 14.096C21.2374 13.824 21.9814 13.688 22.7814 13.688C23.5654 13.688 24.2454 13.84 24.8214 14.144C25.3974 14.448 25.8694 14.864 26.2374 15.392C26.6214 15.904 26.9014 16.512 27.0774 17.216C27.2694 17.904 27.3654 18.632 27.3654 19.4L27.0054 20.456H19.2534C19.2534 20.952 19.3174 21.448 19.4454 21.944C19.5734 22.44 19.7894 22.888 20.0934 23.288C20.4134 23.688 20.8214 24.016 21.3174 24.272C21.8294 24.512 22.4614 24.632 23.2134 24.632C23.6934 24.632 24.1334 24.608 24.5334 24.56C24.9334 24.496 25.2774 24.432 25.5654 24.368C25.8694 24.288 26.1494 24.2 26.4054 24.104L26.7654 25.712ZM25.3734 18.92C25.3734 18.808 25.3494 18.56 25.3014 18.176C25.2534 17.792 25.1414 17.392 24.9654 16.976C24.7894 16.56 24.5174 16.192 24.1494 15.872C23.7814 15.536 23.2934 15.368 22.6854 15.368C22.0134 15.368 21.4614 15.512 21.0294 15.8C20.5974 16.072 20.2534 16.4 19.9974 16.784C19.7414 17.168 19.5654 17.56 19.4694 17.96C19.3734 18.36 19.3254 18.68 19.3254 18.92H25.3734ZM36.448 20.456C36.128 20.472 35.824 20.488 35.536 20.504C35.248 20.52 34.96 20.544 34.672 20.576C34.4 20.592 34.152 20.616 33.928 20.648C32.776 20.792 31.96 21.048 31.48 21.416C31 21.768 30.76 22.28 30.76 22.952C30.76 23.512 30.928 23.936 31.264 24.224C31.616 24.496 32.072 24.632 32.632 24.632C33.4 24.632 34.08 24.504 34.672 24.248C35.28 23.976 35.872 23.624 36.448 23.192V20.456ZM36.424 24.872C35.672 25.304 34.968 25.656 34.312 25.928C33.672 26.184 32.976 26.312 32.224 26.312C31.152 26.312 30.296 26.056 29.656 25.544C29.032 25.016 28.72 24.152 28.72 22.952C28.72 22.328 28.88 21.784 29.2 21.32C29.52 20.856 29.936 20.472 30.448 20.168C30.976 19.848 31.568 19.6 32.224 19.424C32.88 19.248 33.552 19.136 34.24 19.088C34.528 19.056 34.904 19.032 35.368 19.016C35.832 18.984 36.192 18.96 36.448 18.944C36.448 18.384 36.432 17.888 36.4 17.456C36.368 17.008 36.272 16.632 36.112 16.328C35.952 16.008 35.712 15.768 35.392 15.608C35.088 15.448 34.648 15.368 34.072 15.368C33.608 15.368 33.16 15.4 32.728 15.464C32.296 15.512 31.912 15.568 31.576 15.632C31.176 15.712 30.808 15.8 30.472 15.896L30.088 14.24C30.488 14.144 30.92 14.056 31.384 13.976C31.784 13.896 32.248 13.832 32.776 13.784C33.304 13.72 33.872 13.688 34.48 13.688C35.296 13.688 35.952 13.808 36.448 14.048C36.96 14.288 37.352 14.616 37.624 15.032C37.912 15.432 38.104 15.896 38.2 16.424C38.312 16.936 38.368 17.48 38.368 18.056V23.816C38.368 24.04 38.368 24.28 38.368 24.536C38.384 24.776 38.4 25.016 38.416 25.256C38.448 25.496 38.48 25.744 38.512 26L36.664 26.192L36.424 24.872ZM49.0374 15.728C48.4614 15.568 48.0134 15.472 47.6934 15.44C47.3734 15.392 47.0454 15.368 46.7094 15.368C46.0374 15.368 45.4614 15.488 44.9814 15.728C44.5014 15.968 44.1014 16.304 43.7814 16.736C43.4774 17.152 43.2534 17.64 43.1094 18.2C42.9654 18.744 42.8934 19.328 42.8934 19.952C42.8934 20.512 42.9494 21.072 43.0614 21.632C43.1894 22.192 43.3814 22.696 43.6374 23.144C43.8934 23.592 44.2054 23.952 44.5734 24.224C44.9414 24.496 45.3814 24.632 45.8934 24.632C46.2454 24.632 46.6054 24.568 46.9734 24.44C47.3574 24.312 47.7094 24.168 48.0294 24.008C48.3494 23.832 48.6854 23.616 49.0374 23.36V15.728ZM49.0614 25.04C48.6934 25.296 48.3334 25.512 47.9814 25.688C47.6454 25.848 47.2694 25.992 46.8534 26.12C46.4534 26.248 46.0614 26.312 45.6774 26.312C44.1734 26.312 42.9894 25.784 42.1254 24.728C41.2774 23.656 40.8534 22.096 40.8534 20.048C40.8534 18.832 41.0454 17.816 41.4294 17C41.8294 16.184 42.3254 15.536 42.9174 15.056C43.5094 14.56 44.1414 14.208 44.8134 14C45.5014 13.792 46.1334 13.688 46.7094 13.688C46.9974 13.688 47.3014 13.712 47.6214 13.76C47.9414 13.792 48.4134 13.888 49.0374 14.048V8.024L50.9574 7.808V23.816C50.9574 24.04 50.9574 24.28 50.9574 24.536C50.9734 24.776 50.9894 25.016 51.0054 25.256C51.0374 25.496 51.0694 25.744 51.1014 26L49.2534 26.192L49.0614 25.04ZM53.6849 24.584C53.6849 24.2 53.8209 23.872 54.0929 23.6C54.3649 23.312 54.7009 23.168 55.1009 23.168C55.5169 23.168 55.8689 23.312 56.1569 23.6C56.4449 23.872 56.5889 24.2 56.5889 24.584C56.5889 24.984 56.4449 25.32 56.1569 25.592C55.8689 25.864 55.5169 26 55.1009 26C54.7009 26 54.3649 25.864 54.0929 25.592C53.8209 25.32 53.6849 24.984 53.6849 24.584Z" fill="white"/>
</g>
<defs>
<clipPath id="clip0_1_656">
<rect width="90" height="36" fill="white"/>
</clipPath>
</defs>
</svg>
